<?xml version="1.0" encoding="utf-8"?>
<!-- Generator: Adobe Illustrator 16.0.0, SVG Export Plug-In . SVG Version: 6.00 Build 0)  -->
<!DOCTYPE svg PUBLIC "-//W3C//DTD SVG 1.1//EN" "http://www.w3.org/Graphics/SVG/1.1/DTD/svg11.dtd" [
	<!ENTITY ns_flows "http://ns.adobe.com/Flows/1.0/">
	<!ENTITY ns_extend "http://ns.adobe.com/Extensibility/1.0/">
	<!ENTITY ns_ai "http://ns.adobe.com/AdobeIllustrator/10.0/">
	<!ENTITY ns_graphs "http://ns.adobe.com/Graphs/1.0/">
]>
<svg version="1.1" xmlns:x="&ns_extend;" xmlns:i="&ns_ai;" xmlns:graph="&ns_graphs;"
	 xmlns="http://www.w3.org/2000/svg" xmlns:xlink="http://www.w3.org/1999/xlink" xmlns:a="http://ns.adobe.com/AdobeSVGViewerExtensions/3.0/"
	 x="0px" y="0px" width="864px" height="864px" viewBox="0 0 864 864" enable-background="new 0 0 864 864" xml:space="preserve">
<g id="Layer_3">
	<g>
		<path fill-rule="evenodd" clip-rule="evenodd" fill="#1C75BC" d="M694.348,416.7c-2.164-2.55-1.536-7.667-1.711-11.655
			c-0.211-4.851,0.474-9.763,0.008-14.575c-0.745-7.716-2.201-15.362-3.21-23.055c-2.732-20.841-5.13-41.73-8.24-62.515
			c-0.891-5.948-3.903-11.555-5.69-17.396c-4.591-15.009-7.878-30.545-13.871-44.961c-5.978-14.378-14.27-27.853-22.215-41.328
			c-4.325-7.336-9.143-14.842-15.365-20.475c-7.024-6.356-7.449-13.666-5.164-20.886c3.843-12.139,9.503-23.691,13.927-35.664
			c1.157-3.132,0.577-6.907,0.784-10.222c-19.576,6.724-37.583,12.872-55.558,19.114c-3.149,1.093-6.524,4.179-9.172,3.582
			c-8.107-1.831-16.587-3.832-23.685-7.916c-12.568-7.233-25.191-11.735-40.005-11.749c-5.362-0.005-11.096-1.811-17.01-2.064
			c-9.376-0.401-18.595-4.578-27.965-4.934c-27.055-1.028-53.751,1.728-80.51,6.858c-14.552,2.79-29.153,3.047-41.725,12.305
			c-2.437,1.794-6.445,5.032-10.151,0.24c-0.669-0.867-3.966-0.464-5.601,0.305c-9.346,4.396-18.29,9.806-27.926,13.363
			c-4.91,1.813-10.992,0.679-16.524,0.433c-1.648-0.073-3.14-1.928-4.858-2.496c-11.317-3.739-22.591-7.65-34.054-10.885
			c-6.664-1.881-13.653-2.609-23.309-4.368c4.229,6.42,7.782,10.505,9.843,15.24c3.308,7.602,5.284,15.776,8.462,23.445
			c3.41,8.226,8.509,16.333,1.388,24.743c-3.863,4.563-10.249,7.388-13.063,12.371c-11.801,20.89-23.912,41.764-33.482,63.701
			c-6.792,15.57-10.585,32.646-14.099,49.391c-3.78,18.015-6.515,36.351-8.152,54.685c-1.685,18.881-1.406,37.934-2.185,56.903
			c-0.233,5.676,4.713,37.736,5.496,41.54c1.957,9.506,1.051,19.839,4.225,28.804c5.567,15.73,12.067,31.441,20.631,45.684
			c5.214,8.671,9.125,20.844,21.915,21.904c0.646,16.587,20.233,17.285,24.786,30.776c1.803-1.386,3.179-2.443,3.87-2.975
			c2.912,2.526,5.274,5.42,8.313,7.065c12.516,6.773,25.468,12.772,37.772,19.896c5.054,2.926,12.183,7.648,12.63,12.127
			c1.281,12.819-0.408,25.93-0.861,38.928c-0.127,3.637-0.019,7.28-0.019,11.443c4.76-2.248,8.319-3.929,10.725-5.064
			c2.576-13.848,5.078-26.553,7.254-39.313c1.036-6.077,4.966-7.605,9.93-6.366c8.948,2.234,17.57,6.149,26.61,7.583
			c20.324,3.222,40.768,6.68,61.266,7.516c16.849,0.688,33.902-1.781,50.762-3.736c17.872-2.071,35.676-4.89,53.398-8.008
			c6.118-1.076,11.904-4.033,19.48-6.711c10.121,14.674,5.273,33.608,11.357,50.331c3.177-0.256,5.96-0.481,9.11-0.736
			c-1.128-16.488-2.521-32.267-3.034-48.072c-0.107-3.311,2.162-7.887,4.829-9.866c6.837-5.071,14.758-8.652,21.801-13.479
			c12.418-8.51,24.622-17.345,36.683-26.355c6.705-5.01,13.758-9.936,19.193-16.173c8.581-9.844,16.266-20.529,23.734-31.272
			c13.694-19.698,22.943-41.487,25.094-65.408C693.305,443.021,697.616,420.553,694.348,416.7z"/>
	</g>
</g>
<g id="Layer_4">
	<g>
		<path fill-rule="evenodd" clip-rule="evenodd" fill="#EC008C" d="M665.501,331.741c0.317-8.325-3.038-11.874-10.136-12.336
			c-17.4-1.133-34.621-0.362-52.262-3.457c-25.374-4.453-51.697-4.003-77.64-4.583c-28.876-0.645-57.777,0.007-86.666-0.177
			c-4.392-0.028-9.015-2.825-13.113-2.071c-10.113,1.859-19.748,7.321-30.458,2.439c-1.219-0.556-3.131,0.189-4.66,0.575
			c-0.522,0.132-1.042,0.275-1.562,0.427c-2.599,0.757-5.175,1.705-7.78,2.294c-1.042,0.236-2.089,0.414-3.144,0.499
			c-1.629,0.132-3.267,0.167-4.908,0.154c-3.283-0.025-6.582-0.238-9.859-0.232c-1.639,0.003-3.272,0.061-4.895,0.224
			c-5.896,0.592-11.789,1.218-17.68,1.862c-17.673,1.933-35.328,4.033-53.01,5.888c-10.705,1.123-21.436,2.003-32.163,2.915
			c-3.576,0.304-7.151,0.61-10.726,0.931c-0.476,0.042-0.937,0.229-1.405,0.37c-0.156,0.047-0.312,0.09-0.471,0.12
			c-9.734,1.855-19.5,3.567-29.218,5.493c-3.239,0.642-6.474,1.308-9.7,2.01c-6.981,1.521-16.125,1.494-18.669,9.537
			c-7.665,24.227-4.762,49.52-3.931,74.188c0.562,16.696,2.053,34.189,9.474,50.097c2.319,4.972,4.502,10.16,5.675,15.484
			c3.271,14.845,10.66,27.493,19.088,39.876c8.228,10.921,11.179,18.046,12.163,22.284c0.021,0.04,0.042,0.081,0.063,0.122
			c-0.021-0.038-0.04-0.07-0.06-0.107c0.823,3.556,0.26,5.075,0.26,5.075c9.808,37.472,126.896,70.784,201.286,70.071
			c0.282,0.426,0.562,0.851,0.845,1.276c13.663-0.646,27.325-1.293,40.988-1.938c-0.065-0.625-0.132-1.249-0.198-1.874
			c58.367-7.004,112.478-30.041,161.066-88.763c2.686-3.479,6.467-6.584,7.896-10.54c6.665-18.438,13.838-36.823,18.563-55.791
			c3.802-15.262,4.809-31.291,6.228-47.055c1.072-11.917,1.58-23.913,1.711-35.891c0.02-1.711,0.03-3.421,0.034-5.131
			C666.563,361.249,664.941,346.46,665.501,331.741z"/>
	</g>
</g>
<g id="Layer_5">
	<circle fill-rule="evenodd" clip-rule="evenodd" cx="399.729" cy="264.243" r="18.919"/>
	<circle fill-rule="evenodd" clip-rule="evenodd" cx="465.026" cy="264.243" r="35.135"/>
</g>
<g id="Layer_6">
	<circle fill-rule="evenodd" clip-rule="evenodd" fill="#FFFFFF" cx="444.567" cy="264.243" r="6.081"/>
	<circle fill-rule="evenodd" clip-rule="evenodd" fill="#FFFFFF" cx="399.729" cy="264.243" r="6.081"/>
	<g>
		<path fill="#FFFFFF" d="M632.018,531.117c-25.756-38.381-51.682-77.012-78.475-116.936
			c-24.799,38.488-49.098,76.207-74.043,114.926c-19.307-26.811-37.619-52.24-56.609-78.615
			c-24.513,34.084-48.457,67.375-73.251,101.852c-17.024-34.346-33.247-67.07-50.016-100.898
			c-24.21,32.916-47.965,65.213-71.278,96.912c-0.197-0.365-0.385-0.735-0.579-1.102c0.827,3.565,0.263,5.088,0.263,5.088
			c9.808,37.473,126.896,70.785,201.287,70.072c0.281,0.426,0.562,0.85,0.844,1.275c13.664-0.646,27.326-1.293,40.988-1.938
			c-0.064-0.625-0.131-1.25-0.197-1.875C529.318,612.875,583.428,589.838,632.018,531.117z"/>
	</g>
</g>
</svg>
